<svg width="64" height="64" viewBox="0 0 64 64" fill="none" xmlns="http://www.w3.org/2000/svg">
    <circle cx="32" cy="32" r="32" fill="#0F172A"/>
    
    <g fill="#2DD4BF">
        <path d="M32 10L14 18L32 26L50 18L32 10Z"/>
        <path d="M18 21V28C18 28 22 31 32 31C42 31 46 28 46 28V21L32 27.5L18 21Z"/>
        <path d="M50 18V26C50 27.1046 49.1046 28 48 28C46.8954 28 46 27.1046 46 26V19.8L50 18Z"/>
        
        <path fill-rule="evenodd" clip-rule="evenodd" d="M20 34C17.7909 34 16 35.7909 16 38V48C16 52.4183 19.5817 56 24 56H40C44.4183 56 48 52.4183 48 48V38C48 35.7909 46.2091 34 44 34H20ZM25 43C25 41.8954 25.8954 41 27 41H28C29.1046 41 30 41.8954 30 43C30 44.1046 29.1046 45 28 45H27C25.8954 45 25 44.1046 25 43ZM36 41C34.8954 41 34 41.8954 34 43C34 44.1046 34.8954 45 36 45H37C38.1046 45 39 44.1046 39 43C39 41.8954 38.1046 41 37 41H36Z"/>
        
        <path d="M14 40V46H16V40H14Z"/>
        <path d="M48 40V46H50V40H48Z"/>
    </g>
</svg>